<mxfile host="app.diagrams.net" modified="2021-06-17T06:51:21.160Z" agent="5.0 (Windows NT 10.0; Win64; x64) AppleWebKit/537.36 (KHTML, like Gecko) Chrome/72.0.3626.121 Safari/537.36" etag="yyecZRNUl-YY6A-iGoQc" version="14.7.8" type="github" pages="2">
  <diagram id="Smjk02jQxeFNUMDSumUl" name="Page-1">
    <mxGraphModel dx="1422" dy="794" grid="1" gridSize="10" guides="1" tooltips="1" connect="1" arrows="1" fold="1" page="1" pageScale="1" pageWidth="1654" pageHeight="2336" math="0" shadow="0">
      <root>
        <mxCell id="0" />
        <mxCell id="1" parent="0" />
        <mxCell id="5s2drG09dD3WWiOOGFma-1" value="OPEN-API" style="swimlane;startSize=20;horizontal=0;" parent="1" vertex="1">
          <mxGeometry x="10" y="160" width="1420" height="480" as="geometry" />
        </mxCell>
        <mxCell id="5s2drG09dD3WWiOOGFma-2" value="报价 + 摘单 前置校验" style="points=[[0.145,0.145,0],[0.5,0,0],[0.855,0.145,0],[1,0.5,0],[0.855,0.855,0],[0.5,1,0],[0.145,0.855,0],[0,0.5,0]];shape=mxgraph.bpmn.event;html=1;verticalLabelPosition=bottom;labelBackgroundColor=#ffffff;verticalAlign=top;align=center;perimeter=ellipsePerimeter;outlineConnect=0;aspect=fixed;outline=standard;symbol=general;" parent="5s2drG09dD3WWiOOGFma-1" vertex="1">
          <mxGeometry x="70" y="145" width="30" height="30" as="geometry" />
        </mxCell>
        <mxCell id="5s2drG09dD3WWiOOGFma-5" value="参数类型校验" style="points=[[0.25,0,0],[0.5,0,0],[0.75,0,0],[1,0.25,0],[1,0.5,0],[1,0.75,0],[0.75,1,0],[0.5,1,0],[0.25,1,0],[0,0.75,0],[0,0.5,0],[0,0.25,0]];shape=mxgraph.bpmn.task;whiteSpace=wrap;rectStyle=rounded;size=10;taskMarker=abstract;" parent="5s2drG09dD3WWiOOGFma-1" vertex="1">
          <mxGeometry x="160" y="140" width="140" height="40" as="geometry" />
        </mxCell>
        <mxCell id="5s2drG09dD3WWiOOGFma-7" value="查询关联表&#xa;确定订单类型" style="points=[[0.25,0,0],[0.5,0,0],[0.75,0,0],[1,0.25,0],[1,0.5,0],[1,0.75,0],[0.75,1,0],[0.5,1,0],[0.25,1,0],[0,0.75,0],[0,0.5,0],[0,0.25,0]];shape=mxgraph.bpmn.task;whiteSpace=wrap;rectStyle=rounded;size=10;taskMarker=abstract;" parent="5s2drG09dD3WWiOOGFma-1" vertex="1">
          <mxGeometry x="350" y="140" width="140" height="40" as="geometry" />
        </mxCell>
        <mxCell id="5s2drG09dD3WWiOOGFma-8" value="" style="edgeStyle=orthogonalEdgeStyle;rounded=0;orthogonalLoop=1;jettySize=auto;html=1;" parent="5s2drG09dD3WWiOOGFma-1" source="5s2drG09dD3WWiOOGFma-5" target="5s2drG09dD3WWiOOGFma-7" edge="1">
          <mxGeometry relative="1" as="geometry" />
        </mxCell>
        <mxCell id="5s2drG09dD3WWiOOGFma-14" style="edgeStyle=orthogonalEdgeStyle;rounded=0;orthogonalLoop=1;jettySize=auto;html=1;entryX=0;entryY=0.5;entryDx=0;entryDy=0;entryPerimeter=0;" parent="5s2drG09dD3WWiOOGFma-1" source="5s2drG09dD3WWiOOGFma-9" target="5s2drG09dD3WWiOOGFma-13" edge="1">
          <mxGeometry relative="1" as="geometry" />
        </mxCell>
        <mxCell id="5s2drG09dD3WWiOOGFma-9" value="请求captain&#xa;项目AI校验" style="points=[[0.25,0,0],[0.5,0,0],[0.75,0,0],[1,0.25,0],[1,0.5,0],[1,0.75,0],[0.75,1,0],[0.5,1,0],[0.25,1,0],[0,0.75,0],[0,0.5,0],[0,0.25,0]];shape=mxgraph.bpmn.task;whiteSpace=wrap;rectStyle=rounded;size=10;taskMarker=abstract;" parent="5s2drG09dD3WWiOOGFma-1" vertex="1">
          <mxGeometry x="540" y="140" width="140" height="40" as="geometry" />
        </mxCell>
        <mxCell id="5s2drG09dD3WWiOOGFma-10" value="" style="edgeStyle=orthogonalEdgeStyle;rounded=0;orthogonalLoop=1;jettySize=auto;html=1;" parent="5s2drG09dD3WWiOOGFma-1" source="5s2drG09dD3WWiOOGFma-7" target="5s2drG09dD3WWiOOGFma-9" edge="1">
          <mxGeometry relative="1" as="geometry" />
        </mxCell>
        <mxCell id="5s2drG09dD3WWiOOGFma-19" style="edgeStyle=orthogonalEdgeStyle;rounded=0;orthogonalLoop=1;jettySize=auto;html=1;entryX=0.5;entryY=0;entryDx=0;entryDy=0;entryPerimeter=0;" parent="5s2drG09dD3WWiOOGFma-1" source="5s2drG09dD3WWiOOGFma-13" target="5s2drG09dD3WWiOOGFma-18" edge="1">
          <mxGeometry relative="1" as="geometry">
            <Array as="points">
              <mxPoint x="765" y="60" />
              <mxPoint x="1253" y="60" />
            </Array>
          </mxGeometry>
        </mxCell>
        <mxCell id="5s2drG09dD3WWiOOGFma-20" value="失败" style="edgeLabel;html=1;align=center;verticalAlign=middle;resizable=0;points=[];" parent="5s2drG09dD3WWiOOGFma-19" vertex="1" connectable="0">
          <mxGeometry x="-0.105" y="-1" relative="1" as="geometry">
            <mxPoint as="offset" />
          </mxGeometry>
        </mxCell>
        <mxCell id="5s2drG09dD3WWiOOGFma-13" value="解析项目AI校验结果" style="points=[[0.25,0.25,0],[0.5,0,0],[0.75,0.25,0],[1,0.5,0],[0.75,0.75,0],[0.5,1,0],[0.25,0.75,0],[0,0.5,0]];shape=mxgraph.bpmn.gateway2;html=1;verticalLabelPosition=bottom;labelBackgroundColor=#ffffff;verticalAlign=top;align=center;perimeter=rhombusPerimeter;outlineConnect=0;outline=none;symbol=none;gwType=exclusive;" parent="5s2drG09dD3WWiOOGFma-1" vertex="1">
          <mxGeometry x="740" y="135" width="50" height="50" as="geometry" />
        </mxCell>
        <mxCell id="5s2drG09dD3WWiOOGFma-18" value="" style="points=[[0.145,0.145,0],[0.5,0,0],[0.855,0.145,0],[1,0.5,0],[0.855,0.855,0],[0.5,1,0],[0.145,0.855,0],[0,0.5,0]];shape=mxgraph.bpmn.event;html=1;verticalLabelPosition=bottom;labelBackgroundColor=#ffffff;verticalAlign=top;align=center;perimeter=ellipsePerimeter;outlineConnect=0;aspect=fixed;outline=end;symbol=terminate2;" parent="5s2drG09dD3WWiOOGFma-1" vertex="1">
          <mxGeometry x="1240" y="150" width="25" height="25" as="geometry" />
        </mxCell>
        <mxCell id="5s2drG09dD3WWiOOGFma-6" style="edgeStyle=orthogonalEdgeStyle;rounded=0;orthogonalLoop=1;jettySize=auto;html=1;entryX=0;entryY=0.5;entryDx=0;entryDy=0;entryPerimeter=0;" parent="5s2drG09dD3WWiOOGFma-1" source="5s2drG09dD3WWiOOGFma-2" target="5s2drG09dD3WWiOOGFma-5" edge="1">
          <mxGeometry relative="1" as="geometry">
            <mxPoint x="150" y="160" as="targetPoint" />
          </mxGeometry>
        </mxCell>
        <mxCell id="5s2drG09dD3WWiOOGFma-25" value="请求captain&#xa;运费15W校验" style="points=[[0.25,0,0],[0.5,0,0],[0.75,0,0],[1,0.25,0],[1,0.5,0],[1,0.75,0],[0.75,1,0],[0.5,1,0],[0.25,1,0],[0,0.75,0],[0,0.5,0],[0,0.25,0]];shape=mxgraph.bpmn.task;whiteSpace=wrap;rectStyle=rounded;size=10;taskMarker=abstract;" parent="5s2drG09dD3WWiOOGFma-1" vertex="1">
          <mxGeometry x="90" y="340" width="140" height="40" as="geometry" />
        </mxCell>
        <mxCell id="5s2drG09dD3WWiOOGFma-26" value="请求captain&#xa;车长载重校验" style="points=[[0.25,0,0],[0.5,0,0],[0.75,0,0],[1,0.25,0],[1,0.5,0],[1,0.75,0],[0.75,1,0],[0.5,1,0],[0.25,1,0],[0,0.75,0],[0,0.5,0],[0,0.25,0]];shape=mxgraph.bpmn.task;whiteSpace=wrap;rectStyle=rounded;size=10;taskMarker=abstract;" parent="5s2drG09dD3WWiOOGFma-1" vertex="1">
          <mxGeometry x="320" y="340" width="140" height="40" as="geometry" />
        </mxCell>
        <mxCell id="5s2drG09dD3WWiOOGFma-27" value="" style="edgeStyle=orthogonalEdgeStyle;rounded=0;orthogonalLoop=1;jettySize=auto;html=1;" parent="5s2drG09dD3WWiOOGFma-1" source="5s2drG09dD3WWiOOGFma-25" target="5s2drG09dD3WWiOOGFma-26" edge="1">
          <mxGeometry relative="1" as="geometry" />
        </mxCell>
        <mxCell id="5s2drG09dD3WWiOOGFma-32" style="edgeStyle=orthogonalEdgeStyle;rounded=0;orthogonalLoop=1;jettySize=auto;html=1;" parent="5s2drG09dD3WWiOOGFma-1" source="5s2drG09dD3WWiOOGFma-30" target="5s2drG09dD3WWiOOGFma-31" edge="1">
          <mxGeometry relative="1" as="geometry" />
        </mxCell>
        <mxCell id="5s2drG09dD3WWiOOGFma-33" value="是" style="edgeLabel;html=1;align=center;verticalAlign=middle;resizable=0;points=[];" parent="5s2drG09dD3WWiOOGFma-32" vertex="1" connectable="0">
          <mxGeometry x="-0.1733" y="-2" relative="1" as="geometry">
            <mxPoint as="offset" />
          </mxGeometry>
        </mxCell>
        <mxCell id="5s2drG09dD3WWiOOGFma-36" style="edgeStyle=orthogonalEdgeStyle;rounded=0;orthogonalLoop=1;jettySize=auto;html=1;" parent="5s2drG09dD3WWiOOGFma-1" source="5s2drG09dD3WWiOOGFma-30" edge="1">
          <mxGeometry relative="1" as="geometry">
            <mxPoint x="1040" y="380" as="targetPoint" />
            <Array as="points">
              <mxPoint x="565" y="430" />
              <mxPoint x="1040" y="430" />
            </Array>
          </mxGeometry>
        </mxCell>
        <mxCell id="5s2drG09dD3WWiOOGFma-37" value="否" style="edgeLabel;html=1;align=center;verticalAlign=middle;resizable=0;points=[];" parent="5s2drG09dD3WWiOOGFma-36" vertex="1" connectable="0">
          <mxGeometry x="-0.5639" relative="1" as="geometry">
            <mxPoint x="17" as="offset" />
          </mxGeometry>
        </mxCell>
        <mxCell id="5s2drG09dD3WWiOOGFma-30" value="是否竞价单" style="points=[[0.25,0.25,0],[0.5,0,0],[0.75,0.25,0],[1,0.5,0],[0.75,0.75,0],[0.5,1,0],[0.25,0.75,0],[0,0.5,0]];shape=mxgraph.bpmn.gateway2;html=1;verticalLabelPosition=bottom;labelBackgroundColor=#ffffff;verticalAlign=top;align=center;perimeter=rhombusPerimeter;outlineConnect=0;outline=none;symbol=none;gwType=exclusive;" parent="5s2drG09dD3WWiOOGFma-1" vertex="1">
          <mxGeometry x="540" y="335" width="50" height="50" as="geometry" />
        </mxCell>
        <mxCell id="5s2drG09dD3WWiOOGFma-31" value="报价码校验" style="points=[[0.25,0,0],[0.5,0,0],[0.75,0,0],[1,0.25,0],[1,0.5,0],[1,0.75,0],[0.75,1,0],[0.5,1,0],[0.25,1,0],[0,0.75,0],[0,0.5,0],[0,0.25,0]];shape=mxgraph.bpmn.task;whiteSpace=wrap;rectStyle=rounded;size=10;taskMarker=abstract;" parent="5s2drG09dD3WWiOOGFma-1" vertex="1">
          <mxGeometry x="740" y="340" width="140" height="40" as="geometry" />
        </mxCell>
        <mxCell id="5s2drG09dD3WWiOOGFma-40" style="edgeStyle=orthogonalEdgeStyle;rounded=0;orthogonalLoop=1;jettySize=auto;html=1;entryX=0.5;entryY=1;entryDx=0;entryDy=0;entryPerimeter=0;" parent="5s2drG09dD3WWiOOGFma-1" source="5s2drG09dD3WWiOOGFma-35" target="5s2drG09dD3WWiOOGFma-18" edge="1">
          <mxGeometry relative="1" as="geometry" />
        </mxCell>
        <mxCell id="5s2drG09dD3WWiOOGFma-35" value="组装前置校验结果" style="points=[[0.25,0,0],[0.5,0,0],[0.75,0,0],[1,0.25,0],[1,0.5,0],[1,0.75,0],[0.75,1,0],[0.5,1,0],[0.25,1,0],[0,0.75,0],[0,0.5,0],[0,0.25,0]];shape=mxgraph.bpmn.task;whiteSpace=wrap;rectStyle=rounded;size=10;taskMarker=abstract;" parent="5s2drG09dD3WWiOOGFma-1" vertex="1">
          <mxGeometry x="970" y="340" width="140" height="40" as="geometry" />
        </mxCell>
        <mxCell id="5s2drG09dD3WWiOOGFma-21" style="edgeStyle=orthogonalEdgeStyle;rounded=0;orthogonalLoop=1;jettySize=auto;html=1;" parent="1" source="5s2drG09dD3WWiOOGFma-13" edge="1">
          <mxGeometry relative="1" as="geometry">
            <mxPoint x="170" y="500" as="targetPoint" />
            <Array as="points">
              <mxPoint x="775" y="430" />
              <mxPoint x="170" y="430" />
            </Array>
          </mxGeometry>
        </mxCell>
        <mxCell id="5s2drG09dD3WWiOOGFma-24" value="成功-走前置校验" style="edgeLabel;html=1;align=center;verticalAlign=middle;resizable=0;points=[];" parent="5s2drG09dD3WWiOOGFma-21" vertex="1" connectable="0">
          <mxGeometry x="0.1395" y="-4" relative="1" as="geometry">
            <mxPoint as="offset" />
          </mxGeometry>
        </mxCell>
        <mxCell id="5s2drG09dD3WWiOOGFma-29" value="" style="edgeStyle=orthogonalEdgeStyle;rounded=0;orthogonalLoop=1;jettySize=auto;html=1;" parent="1" source="5s2drG09dD3WWiOOGFma-26" edge="1">
          <mxGeometry relative="1" as="geometry">
            <mxPoint x="550" y="520" as="targetPoint" />
          </mxGeometry>
        </mxCell>
        <mxCell id="5s2drG09dD3WWiOOGFma-34" style="edgeStyle=orthogonalEdgeStyle;rounded=0;orthogonalLoop=1;jettySize=auto;html=1;" parent="1" source="5s2drG09dD3WWiOOGFma-31" edge="1">
          <mxGeometry relative="1" as="geometry">
            <mxPoint x="980" y="520" as="targetPoint" />
          </mxGeometry>
        </mxCell>
      </root>
    </mxGraphModel>
  </diagram>
  <diagram id="_up5PxG6Z1ub51YZh9eV" name="Page-2">
    <mxGraphModel dx="1422" dy="745" grid="1" gridSize="10" guides="1" tooltips="1" connect="1" arrows="1" fold="1" page="1" pageScale="1" pageWidth="1654" pageHeight="2336" math="0" shadow="0">
      <root>
        <mxCell id="RVwrBZawvs7CtB8FFzEV-0" />
        <mxCell id="RVwrBZawvs7CtB8FFzEV-1" parent="RVwrBZawvs7CtB8FFzEV-0" />
        <mxCell id="RVwrBZawvs7CtB8FFzEV-12" value="订单同步" style="swimlane;childLayout=stackLayout;resizeParent=1;resizeParentMax=0;horizontal=0;startSize=20;horizontalStack=0;" vertex="1" parent="RVwrBZawvs7CtB8FFzEV-1">
          <mxGeometry x="20" y="100" width="1360" height="680" as="geometry" />
        </mxCell>
        <mxCell id="RVwrBZawvs7CtB8FFzEV-13" value="主线程" style="swimlane;startSize=20;horizontal=0;" vertex="1" parent="RVwrBZawvs7CtB8FFzEV-12">
          <mxGeometry x="20" width="1340" height="400" as="geometry" />
        </mxCell>
        <mxCell id="RVwrBZawvs7CtB8FFzEV-20" style="edgeStyle=orthogonalEdgeStyle;rounded=0;orthogonalLoop=1;jettySize=auto;html=1;entryX=0;entryY=0.5;entryDx=0;entryDy=0;entryPerimeter=0;" edge="1" parent="RVwrBZawvs7CtB8FFzEV-13" source="RVwrBZawvs7CtB8FFzEV-17" target="RVwrBZawvs7CtB8FFzEV-18">
          <mxGeometry relative="1" as="geometry" />
        </mxCell>
        <mxCell id="RVwrBZawvs7CtB8FFzEV-17" value="" style="points=[[0.145,0.145,0],[0.5,0,0],[0.855,0.145,0],[1,0.5,0],[0.855,0.855,0],[0.5,1,0],[0.145,0.855,0],[0,0.5,0]];shape=mxgraph.bpmn.event;html=1;verticalLabelPosition=bottom;labelBackgroundColor=#ffffff;verticalAlign=top;align=center;perimeter=ellipsePerimeter;outlineConnect=0;aspect=fixed;outline=standard;symbol=general;" vertex="1" parent="RVwrBZawvs7CtB8FFzEV-13">
          <mxGeometry x="50" y="120" width="20" height="20" as="geometry" />
        </mxCell>
        <mxCell id="RVwrBZawvs7CtB8FFzEV-18" value="统计待同步订单数量" style="points=[[0.25,0,0],[0.5,0,0],[0.75,0,0],[1,0.25,0],[1,0.5,0],[1,0.75,0],[0.75,1,0],[0.5,1,0],[0.25,1,0],[0,0.75,0],[0,0.5,0],[0,0.25,0]];shape=mxgraph.bpmn.task;whiteSpace=wrap;rectStyle=rounded;size=10;taskMarker=abstract;" vertex="1" parent="RVwrBZawvs7CtB8FFzEV-13">
          <mxGeometry x="120" y="107.5" width="120" height="45" as="geometry" />
        </mxCell>
        <mxCell id="RVwrBZawvs7CtB8FFzEV-21" value="分页查询订单Id" style="points=[[0.25,0,0],[0.5,0,0],[0.75,0,0],[1,0.25,0],[1,0.5,0],[1,0.75,0],[0.75,1,0],[0.5,1,0],[0.25,1,0],[0,0.75,0],[0,0.5,0],[0,0.25,0]];shape=mxgraph.bpmn.task;whiteSpace=wrap;rectStyle=rounded;size=10;taskMarker=abstract;" vertex="1" parent="RVwrBZawvs7CtB8FFzEV-13">
          <mxGeometry x="300" y="107.5" width="120" height="45" as="geometry" />
        </mxCell>
        <mxCell id="RVwrBZawvs7CtB8FFzEV-22" value="" style="edgeStyle=orthogonalEdgeStyle;rounded=0;orthogonalLoop=1;jettySize=auto;html=1;" edge="1" parent="RVwrBZawvs7CtB8FFzEV-13" source="RVwrBZawvs7CtB8FFzEV-18" target="RVwrBZawvs7CtB8FFzEV-21">
          <mxGeometry relative="1" as="geometry" />
        </mxCell>
        <mxCell id="RVwrBZawvs7CtB8FFzEV-30" style="edgeStyle=orthogonalEdgeStyle;rounded=0;orthogonalLoop=1;jettySize=auto;html=1;entryX=0.615;entryY=0.012;entryDx=0;entryDy=0;entryPerimeter=0;" edge="1" parent="RVwrBZawvs7CtB8FFzEV-13" source="RVwrBZawvs7CtB8FFzEV-23" target="RVwrBZawvs7CtB8FFzEV-27">
          <mxGeometry relative="1" as="geometry">
            <Array as="points">
              <mxPoint x="505" y="40" />
              <mxPoint x="950" y="40" />
              <mxPoint x="950" y="108" />
            </Array>
          </mxGeometry>
        </mxCell>
        <mxCell id="RVwrBZawvs7CtB8FFzEV-31" value="空" style="edgeLabel;html=1;align=center;verticalAlign=middle;resizable=0;points=[];" vertex="1" connectable="0" parent="RVwrBZawvs7CtB8FFzEV-30">
          <mxGeometry x="-0.1594" y="-1" relative="1" as="geometry">
            <mxPoint as="offset" />
          </mxGeometry>
        </mxCell>
        <mxCell id="RVwrBZawvs7CtB8FFzEV-23" value="订单Id集合是否不为空" style="points=[[0.25,0.25,0],[0.5,0,0],[0.75,0.25,0],[1,0.5,0],[0.75,0.75,0],[0.5,1,0],[0.25,0.75,0],[0,0.5,0]];shape=mxgraph.bpmn.gateway2;html=1;verticalLabelPosition=bottom;labelBackgroundColor=#ffffff;verticalAlign=top;align=center;perimeter=rhombusPerimeter;outlineConnect=0;outline=none;symbol=none;gwType=exclusive;" vertex="1" parent="RVwrBZawvs7CtB8FFzEV-13">
          <mxGeometry x="480" y="102.5" width="50" height="50" as="geometry" />
        </mxCell>
        <mxCell id="RVwrBZawvs7CtB8FFzEV-27" value="日志记录总体同步结果" style="points=[[0.25,0,0],[0.5,0,0],[0.75,0,0],[1,0.25,0],[1,0.5,0],[1,0.75,0],[0.75,1,0],[0.5,1,0],[0.25,1,0],[0,0.75,0],[0,0.5,0],[0,0.25,0]];shape=mxgraph.bpmn.task;whiteSpace=wrap;rectStyle=rounded;size=10;taskMarker=abstract;" vertex="1" parent="RVwrBZawvs7CtB8FFzEV-13">
          <mxGeometry x="870" y="120" width="130" height="42.5" as="geometry" />
        </mxCell>
        <mxCell id="RVwrBZawvs7CtB8FFzEV-24" style="edgeStyle=orthogonalEdgeStyle;rounded=0;orthogonalLoop=1;jettySize=auto;html=1;entryX=0;entryY=0.5;entryDx=0;entryDy=0;entryPerimeter=0;" edge="1" parent="RVwrBZawvs7CtB8FFzEV-13" source="RVwrBZawvs7CtB8FFzEV-21" target="RVwrBZawvs7CtB8FFzEV-23">
          <mxGeometry relative="1" as="geometry">
            <mxPoint x="480" y="250" as="targetPoint" />
            <Array as="points">
              <mxPoint x="450" y="128" />
            </Array>
          </mxGeometry>
        </mxCell>
        <mxCell id="RVwrBZawvs7CtB8FFzEV-36" value="循环订单Id&#xa;提交任务到线程池" style="points=[[0.25,0,0],[0.5,0,0],[0.75,0,0],[1,0.25,0],[1,0.5,0],[1,0.75,0],[0.75,1,0],[0.5,1,0],[0.25,1,0],[0,0.75,0],[0,0.5,0],[0,0.25,0]];shape=mxgraph.bpmn.task;whiteSpace=wrap;rectStyle=rounded;size=10;taskMarker=abstract;isLoopStandard=1;" vertex="1" parent="RVwrBZawvs7CtB8FFzEV-13">
          <mxGeometry x="630" y="255" width="120" height="50" as="geometry" />
        </mxCell>
        <mxCell id="RVwrBZawvs7CtB8FFzEV-39" value="实例化计数器" style="points=[[0.25,0,0],[0.5,0,0],[0.75,0,0],[1,0.25,0],[1,0.5,0],[1,0.75,0],[0.75,1,0],[0.5,1,0],[0.25,1,0],[0,0.75,0],[0,0.5,0],[0,0.25,0]];shape=mxgraph.bpmn.task;whiteSpace=wrap;rectStyle=rounded;size=10;taskMarker=abstract;" vertex="1" parent="RVwrBZawvs7CtB8FFzEV-13">
          <mxGeometry x="450" y="260" width="120" height="45" as="geometry" />
        </mxCell>
        <mxCell id="RVwrBZawvs7CtB8FFzEV-44" style="edgeStyle=orthogonalEdgeStyle;rounded=0;orthogonalLoop=1;jettySize=auto;html=1;entryX=0;entryY=0.5;entryDx=0;entryDy=0;entryPerimeter=0;" edge="1" parent="RVwrBZawvs7CtB8FFzEV-13" source="RVwrBZawvs7CtB8FFzEV-42" target="RVwrBZawvs7CtB8FFzEV-43">
          <mxGeometry relative="1" as="geometry" />
        </mxCell>
        <mxCell id="RVwrBZawvs7CtB8FFzEV-42" value="主线程等待" style="points=[[0.25,0,0],[0.5,0,0],[0.75,0,0],[1,0.25,0],[1,0.5,0],[1,0.75,0],[0.75,1,0],[0.5,1,0],[0.25,1,0],[0,0.75,0],[0,0.5,0],[0,0.25,0]];shape=mxgraph.bpmn.task;whiteSpace=wrap;rectStyle=rounded;size=10;taskMarker=abstract;" vertex="1" parent="RVwrBZawvs7CtB8FFzEV-13">
          <mxGeometry x="840" y="257.5" width="120" height="45" as="geometry" />
        </mxCell>
        <mxCell id="RVwrBZawvs7CtB8FFzEV-45" style="edgeStyle=orthogonalEdgeStyle;rounded=0;orthogonalLoop=1;jettySize=auto;html=1;entryX=0.35;entryY=1.1;entryDx=0;entryDy=0;entryPerimeter=0;" edge="1" parent="RVwrBZawvs7CtB8FFzEV-13" source="RVwrBZawvs7CtB8FFzEV-43" target="RVwrBZawvs7CtB8FFzEV-21">
          <mxGeometry relative="1" as="geometry">
            <Array as="points">
              <mxPoint x="1250" y="280" />
              <mxPoint x="1250" y="360" />
              <mxPoint x="342" y="360" />
            </Array>
          </mxGeometry>
        </mxCell>
        <mxCell id="RVwrBZawvs7CtB8FFzEV-46" value="下一批次同步" style="edgeLabel;html=1;align=center;verticalAlign=middle;resizable=0;points=[];" vertex="1" connectable="0" parent="RVwrBZawvs7CtB8FFzEV-45">
          <mxGeometry x="-0.1197" relative="1" as="geometry">
            <mxPoint x="-397" as="offset" />
          </mxGeometry>
        </mxCell>
        <mxCell id="RVwrBZawvs7CtB8FFzEV-43" value="日志记录当前批次同步结果" style="points=[[0.25,0,0],[0.5,0,0],[0.75,0,0],[1,0.25,0],[1,0.5,0],[1,0.75,0],[0.75,1,0],[0.5,1,0],[0.25,1,0],[0,0.75,0],[0,0.5,0],[0,0.25,0]];shape=mxgraph.bpmn.task;whiteSpace=wrap;rectStyle=rounded;size=10;taskMarker=abstract;" vertex="1" parent="RVwrBZawvs7CtB8FFzEV-13">
          <mxGeometry x="1020" y="257.5" width="120" height="45" as="geometry" />
        </mxCell>
        <mxCell id="RVwrBZawvs7CtB8FFzEV-49" value="重置分页参数" style="points=[[0.25,0,0],[0.5,0,0],[0.75,0,0],[1,0.25,0],[1,0.5,0],[1,0.75,0],[0.75,1,0],[0.5,1,0],[0.25,1,0],[0,0.75,0],[0,0.5,0],[0,0.25,0]];shape=mxgraph.bpmn.task;whiteSpace=wrap;rectStyle=rounded;size=10;taskMarker=abstract;" vertex="1" parent="RVwrBZawvs7CtB8FFzEV-13">
          <mxGeometry x="1190" y="257.5" width="120" height="45" as="geometry" />
        </mxCell>
        <mxCell id="RVwrBZawvs7CtB8FFzEV-50" value="" style="edgeStyle=orthogonalEdgeStyle;rounded=0;orthogonalLoop=1;jettySize=auto;html=1;" edge="1" parent="RVwrBZawvs7CtB8FFzEV-13" source="RVwrBZawvs7CtB8FFzEV-43" target="RVwrBZawvs7CtB8FFzEV-49">
          <mxGeometry relative="1" as="geometry" />
        </mxCell>
        <mxCell id="RVwrBZawvs7CtB8FFzEV-69" value="" style="points=[[0.145,0.145,0],[0.5,0,0],[0.855,0.145,0],[1,0.5,0],[0.855,0.855,0],[0.5,1,0],[0.145,0.855,0],[0,0.5,0]];shape=mxgraph.bpmn.event;html=1;verticalLabelPosition=bottom;labelBackgroundColor=#ffffff;verticalAlign=top;align=center;perimeter=ellipsePerimeter;outlineConnect=0;aspect=fixed;outline=end;symbol=terminate2;" vertex="1" parent="RVwrBZawvs7CtB8FFzEV-13">
          <mxGeometry x="1280" y="130" width="22.5" height="22.5" as="geometry" />
        </mxCell>
        <mxCell id="RVwrBZawvs7CtB8FFzEV-14" value="异步线程" style="swimlane;startSize=20;horizontal=0;" vertex="1" parent="RVwrBZawvs7CtB8FFzEV-12">
          <mxGeometry x="20" y="400" width="1340" height="280" as="geometry" />
        </mxCell>
        <mxCell id="RVwrBZawvs7CtB8FFzEV-52" value="组装历史订单数据" style="points=[[0.25,0,0],[0.5,0,0],[0.75,0,0],[1,0.25,0],[1,0.5,0],[1,0.75,0],[0.75,1,0],[0.5,1,0],[0.25,1,0],[0,0.75,0],[0,0.5,0],[0,0.25,0]];shape=mxgraph.bpmn.task;whiteSpace=wrap;rectStyle=rounded;size=10;taskMarker=receive;" vertex="1" parent="RVwrBZawvs7CtB8FFzEV-14">
          <mxGeometry x="120" y="170" width="130" height="50" as="geometry" />
        </mxCell>
        <mxCell id="RVwrBZawvs7CtB8FFzEV-55" value="请求有货同步数据接口" style="points=[[0.25,0,0],[0.5,0,0],[0.75,0,0],[1,0.25,0],[1,0.5,0],[1,0.75,0],[0.75,1,0],[0.5,1,0],[0.25,1,0],[0,0.75,0],[0,0.5,0],[0,0.25,0]];shape=mxgraph.bpmn.task;whiteSpace=wrap;rectStyle=rounded;size=10;taskMarker=abstract;" vertex="1" parent="RVwrBZawvs7CtB8FFzEV-14">
          <mxGeometry x="350" y="167.5" width="140" height="52.5" as="geometry" />
        </mxCell>
        <mxCell id="RVwrBZawvs7CtB8FFzEV-34" value="非空" style="edgeStyle=orthogonalEdgeStyle;rounded=0;orthogonalLoop=1;jettySize=auto;html=1;" edge="1" parent="RVwrBZawvs7CtB8FFzEV-1" source="RVwrBZawvs7CtB8FFzEV-23">
          <mxGeometry relative="1" as="geometry">
            <mxPoint x="565" y="360" as="targetPoint" />
          </mxGeometry>
        </mxCell>
        <mxCell id="RVwrBZawvs7CtB8FFzEV-40" style="edgeStyle=orthogonalEdgeStyle;rounded=0;orthogonalLoop=1;jettySize=auto;html=1;" edge="1" parent="RVwrBZawvs7CtB8FFzEV-1" source="RVwrBZawvs7CtB8FFzEV-39">
          <mxGeometry relative="1" as="geometry">
            <mxPoint x="670" y="383" as="targetPoint" />
          </mxGeometry>
        </mxCell>
        <mxCell id="RVwrBZawvs7CtB8FFzEV-41" style="edgeStyle=orthogonalEdgeStyle;rounded=0;orthogonalLoop=1;jettySize=auto;html=1;" edge="1" parent="RVwrBZawvs7CtB8FFzEV-1" source="RVwrBZawvs7CtB8FFzEV-36">
          <mxGeometry relative="1" as="geometry">
            <mxPoint x="900" y="380" as="targetPoint" />
          </mxGeometry>
        </mxCell>
        <mxCell id="RVwrBZawvs7CtB8FFzEV-47" style="edgeStyle=orthogonalEdgeStyle;rounded=0;orthogonalLoop=1;jettySize=auto;html=1;" edge="1" parent="RVwrBZawvs7CtB8FFzEV-1" source="RVwrBZawvs7CtB8FFzEV-36">
          <mxGeometry relative="1" as="geometry">
            <mxPoint x="240" y="670" as="targetPoint" />
            <Array as="points">
              <mxPoint x="730" y="590" />
              <mxPoint x="240" y="590" />
            </Array>
          </mxGeometry>
        </mxCell>
        <mxCell id="RVwrBZawvs7CtB8FFzEV-51" value="提交异步线程任务" style="edgeLabel;html=1;align=center;verticalAlign=middle;resizable=0;points=[];" vertex="1" connectable="0" parent="RVwrBZawvs7CtB8FFzEV-47">
          <mxGeometry x="-0.1152" y="5" relative="1" as="geometry">
            <mxPoint x="-101" y="-5" as="offset" />
          </mxGeometry>
        </mxCell>
        <mxCell id="RVwrBZawvs7CtB8FFzEV-54" value="" style="edgeStyle=orthogonalEdgeStyle;rounded=0;orthogonalLoop=1;jettySize=auto;html=1;" edge="1" parent="RVwrBZawvs7CtB8FFzEV-1" source="RVwrBZawvs7CtB8FFzEV-52">
          <mxGeometry relative="1" as="geometry">
            <mxPoint x="390" y="695" as="targetPoint" />
          </mxGeometry>
        </mxCell>
        <mxCell id="RVwrBZawvs7CtB8FFzEV-59" value="" style="edgeStyle=orthogonalEdgeStyle;rounded=0;orthogonalLoop=1;jettySize=auto;html=1;" edge="1" parent="RVwrBZawvs7CtB8FFzEV-1" source="RVwrBZawvs7CtB8FFzEV-56" target="RVwrBZawvs7CtB8FFzEV-58">
          <mxGeometry relative="1" as="geometry" />
        </mxCell>
        <mxCell id="RVwrBZawvs7CtB8FFzEV-56" value="解析返回值&#xa;保存有货需求Id" style="points=[[0.25,0,0],[0.5,0,0],[0.75,0,0],[1,0.25,0],[1,0.5,0],[1,0.75,0],[0.75,1,0],[0.5,1,0],[0.25,1,0],[0,0.75,0],[0,0.5,0],[0,0.25,0]];shape=mxgraph.bpmn.task;whiteSpace=wrap;rectStyle=rounded;size=10;taskMarker=abstract;" vertex="1" parent="RVwrBZawvs7CtB8FFzEV-1">
          <mxGeometry x="610" y="667.5" width="140" height="52.5" as="geometry" />
        </mxCell>
        <mxCell id="RVwrBZawvs7CtB8FFzEV-57" value="" style="edgeStyle=orthogonalEdgeStyle;rounded=0;orthogonalLoop=1;jettySize=auto;html=1;" edge="1" parent="RVwrBZawvs7CtB8FFzEV-1" source="RVwrBZawvs7CtB8FFzEV-55" target="RVwrBZawvs7CtB8FFzEV-56">
          <mxGeometry relative="1" as="geometry" />
        </mxCell>
        <mxCell id="RVwrBZawvs7CtB8FFzEV-58" value="计数器-1" style="points=[[0.25,0,0],[0.5,0,0],[0.75,0,0],[1,0.25,0],[1,0.5,0],[1,0.75,0],[0.75,1,0],[0.5,1,0],[0.25,1,0],[0,0.75,0],[0,0.5,0],[0,0.25,0]];shape=mxgraph.bpmn.task;whiteSpace=wrap;rectStyle=rounded;size=10;taskMarker=abstract;" vertex="1" parent="RVwrBZawvs7CtB8FFzEV-1">
          <mxGeometry x="830" y="667.5" width="140" height="52.5" as="geometry" />
        </mxCell>
        <mxCell id="RVwrBZawvs7CtB8FFzEV-68" value="" style="edgeStyle=orthogonalEdgeStyle;rounded=0;orthogonalLoop=1;jettySize=auto;html=1;" edge="1" parent="RVwrBZawvs7CtB8FFzEV-1" source="RVwrBZawvs7CtB8FFzEV-66" target="RVwrBZawvs7CtB8FFzEV-67">
          <mxGeometry relative="1" as="geometry" />
        </mxCell>
        <mxCell id="RVwrBZawvs7CtB8FFzEV-66" value="日志记录总体同步结果" style="points=[[0.25,0,0],[0.5,0,0],[0.75,0,0],[1,0.25,0],[1,0.5,0],[1,0.75,0],[0.75,1,0],[0.5,1,0],[0.25,1,0],[0,0.75,0],[0,0.5,0],[0,0.25,0]];shape=mxgraph.bpmn.task;whiteSpace=wrap;rectStyle=rounded;size=10;taskMarker=abstract;" vertex="1" parent="RVwrBZawvs7CtB8FFzEV-1">
          <mxGeometry x="910" y="220" width="160" height="42.5" as="geometry" />
        </mxCell>
        <mxCell id="RVwrBZawvs7CtB8FFzEV-70" style="edgeStyle=orthogonalEdgeStyle;rounded=0;orthogonalLoop=1;jettySize=auto;html=1;entryX=0;entryY=0.5;entryDx=0;entryDy=0;entryPerimeter=0;" edge="1" parent="RVwrBZawvs7CtB8FFzEV-1" source="RVwrBZawvs7CtB8FFzEV-67" target="RVwrBZawvs7CtB8FFzEV-69">
          <mxGeometry relative="1" as="geometry" />
        </mxCell>
        <mxCell id="RVwrBZawvs7CtB8FFzEV-67" value="关闭线程池" style="points=[[0.25,0,0],[0.5,0,0],[0.75,0,0],[1,0.25,0],[1,0.5,0],[1,0.75,0],[0.75,1,0],[0.5,1,0],[0.25,1,0],[0,0.75,0],[0,0.5,0],[0,0.25,0]];shape=mxgraph.bpmn.task;whiteSpace=wrap;rectStyle=rounded;size=10;taskMarker=abstract;" vertex="1" parent="RVwrBZawvs7CtB8FFzEV-1">
          <mxGeometry x="1150" y="220" width="110" height="42.5" as="geometry" />
        </mxCell>
      </root>
    </mxGraphModel>
  </diagram>
</mxfile>
